<svg data-v-423bf9ae="" xmlns="http://www.w3.org/2000/svg" viewBox="0 0 211.6933327237959 60" class="font"><!----><!----><!----><g data-v-423bf9ae="" id="ade9d553-c7a2-4716-ba81-0d233773f0b7" fill="black" transform="matrix(5.0547599476387,0,0,5.0547599476387,2.122999296134921,-16.276327891270192)"><path d="M3.39 7.15L3.39 7.15L3.39 7.15Q3.39 6.53 3.38 6.01L3.38 6.01L3.38 6.01Q3.37 5.49 3.36 5.10L3.36 5.10L3.36 5.10Q3.35 4.72 3.34 4.49L3.34 4.49L3.34 4.49Q3.33 4.27 3.33 4.22L3.33 4.22L3.33 4.22Q3.19 4.13 3.02 4.12L3.02 4.12L3.02 4.12Q2.84 4.12 2.67 4.12L2.67 4.12L2.67 4.12Q2.43 4.12 2.10 4.23L2.10 4.23L2.10 4.23Q1.76 4.34 1.45 4.55L1.45 4.55L1.45 4.55Q1.13 4.76 0.92 5.06L0.92 5.06L0.92 5.06Q0.70 5.37 0.70 5.74L0.70 5.74L0.70 5.74Q0.70 5.96 0.76 6.09L0.76 6.09L0.76 6.09Q0.81 6.22 0.89 6.29L0.89 6.29L0.89 6.29Q0.97 6.35 1.05 6.37L1.05 6.37L1.05 6.37Q1.13 6.38 1.16 6.38L1.16 6.38L1.16 6.38Q1.33 6.38 1.44 6.33L1.44 6.33L1.44 6.33Q1.55 6.27 1.64 6.20L1.64 6.20L1.64 6.20Q1.73 6.14 1.81 6.08L1.81 6.08L1.81 6.08Q1.89 6.02 1.99 6.02L1.99 6.02L1.99 6.02Q2.07 6.02 2.16 6.06L2.16 6.06L2.16 6.06Q2.26 6.10 2.33 6.18L2.33 6.18L2.33 6.18Q2.41 6.26 2.47 6.40L2.47 6.40L2.47 6.40Q2.52 6.53 2.52 6.72L2.52 6.72L2.52 6.72Q2.52 6.99 2.42 7.19L2.42 7.19L2.42 7.19Q2.31 7.39 2.14 7.52L2.14 7.52L2.14 7.52Q1.98 7.66 1.76 7.72L1.76 7.72L1.76 7.72Q1.54 7.79 1.33 7.79L1.33 7.79L1.33 7.79Q1.00 7.79 0.74 7.67L0.74 7.67L0.74 7.67Q0.48 7.56 0.29 7.36L0.29 7.36L0.29 7.36Q0.11 7.16 0.01 6.90L0.01 6.90L0.01 6.90Q-0.08 6.63-0.08 6.33L-0.08 6.33L-0.08 6.33Q-0.08 5.62 0.22 5.09L0.22 5.09L0.22 5.09Q0.51 4.56 1.01 4.20L1.01 4.20L1.01 4.20Q1.50 3.85 2.15 3.67L2.15 3.67L2.15 3.67Q2.80 3.50 3.49 3.50L3.49 3.50L3.49 3.50Q4.11 3.50 4.51 3.58L4.51 3.58L4.51 3.58Q4.92 3.66 5.17 3.80L5.17 3.80L5.17 3.80Q5.42 3.94 5.56 4.13L5.56 4.13L5.56 4.13Q5.71 4.31 5.81 4.52L5.81 4.52L5.81 4.52Q6.23 5.37 6.62 6.19L6.62 6.19L6.62 6.19Q7.01 7.01 7.38 7.79L7.38 7.79L7.38 7.79Q7.75 8.57 8.09 9.29L8.09 9.29L8.09 9.29Q8.44 10.01 8.76 10.65L8.76 10.65L8.76 9.67L8.76 7.56L8.76 7.56Q8.76 6.99 8.79 6.45L8.79 6.45L8.79 6.45Q8.83 5.91 8.92 5.42L8.92 5.42L8.92 5.42Q9.02 4.94 9.22 4.54L9.22 4.54L9.22 4.54Q9.42 4.14 9.75 3.84L9.75 3.84L9.75 3.84Q10.08 3.55 10.58 3.38L10.58 3.38L10.58 3.38Q11.07 3.22 11.76 3.22L11.76 3.22L11.76 3.22Q12.11 3.22 12.40 3.27L12.40 3.27L12.40 3.27Q12.69 3.32 12.91 3.42L12.91 3.42L12.91 3.42Q13.13 3.51 13.25 3.65L13.25 3.65L13.25 3.65Q13.37 3.79 13.37 3.96L13.37 3.96L13.37 3.96Q13.37 4.07 13.34 4.19L13.34 4.19L13.34 4.19Q13.31 4.31 13.25 4.41L13.25 4.41L13.25 4.41Q13.19 4.50 13.09 4.57L13.09 4.57L13.09 4.57Q13.00 4.63 12.88 4.63L12.88 4.63L12.88 4.63Q12.78 4.63 12.69 4.49L12.69 4.49L12.69 4.49Q12.61 4.35 12.48 4.17L12.48 4.17L12.48 4.17Q12.35 4.00 12.14 3.86L12.14 3.86L12.14 3.86Q11.94 3.71 11.58 3.71L11.58 3.71L11.58 3.71Q11.03 3.71 10.66 3.91L10.66 3.91L10.66 3.91Q10.29 4.10 10.07 4.46L10.07 4.46L10.07 4.46Q9.84 4.81 9.74 5.32L9.74 5.32L9.74 5.32Q9.63 5.83 9.60 6.45L9.60 6.45L9.60 6.45Q9.59 6.88 9.58 7.29L9.58 7.29L9.58 7.29Q9.57 7.70 9.57 8.11L9.57 8.11L9.57 8.11Q9.56 8.53 9.56 8.98L9.56 8.98L9.56 8.98Q9.56 9.43 9.56 9.94L9.56 9.94L9.56 9.94Q9.56 10.66 9.57 11.24L9.57 11.24L9.57 11.24Q9.58 11.81 9.59 12.18L9.59 12.18L9.59 12.18Q9.90 12.71 10.20 13.13L10.20 13.13L10.20 13.13Q10.50 13.55 10.79 13.84L10.79 13.84L10.79 13.84Q11.08 14.13 11.38 14.29L11.38 14.29L11.38 14.29Q11.67 14.44 11.97 14.44L11.97 14.44L11.97 14.44Q12.07 14.44 12.15 14.42L12.15 14.42L12.15 14.42Q12.24 14.39 12.31 14.36L12.31 14.36L12.31 14.36Q12.39 14.32 12.46 14.27L12.46 14.27L12.68 14.53L12.68 14.53Q12.58 14.60 12.41 14.70L12.41 14.70L12.41 14.70Q12.24 14.79 11.99 14.88L11.99 14.88L11.99 14.88Q11.74 14.97 11.42 15.03L11.42 15.03L11.42 15.03Q11.09 15.09 10.71 15.09L10.71 15.09L10.71 15.09Q10.16 15.09 9.65 14.82L9.65 14.82L9.65 14.82Q9.14 14.55 8.67 14.08L8.67 14.08L8.67 14.08Q8.20 13.61 7.77 12.98L7.77 12.98L7.77 12.98Q7.33 12.35 6.94 11.62L6.94 11.62L6.94 11.62Q6.54 10.90 6.17 10.11L6.17 10.11L6.17 10.11Q5.80 9.32 5.45 8.56L5.45 8.56L5.45 8.56Q5.11 7.79 4.79 7.06L4.79 7.06L4.79 7.06Q4.47 6.34 4.17 5.74L4.17 5.74L4.17 5.74Q4.17 6.14 4.18 6.56L4.18 6.56L4.18 6.56Q4.18 6.99 4.18 7.42L4.18 7.42L4.18 9.54L4.18 9.54Q4.18 10.10 4.16 10.64L4.16 10.64L4.16 10.64Q4.13 11.18 4.03 11.67L4.03 11.67L4.03 11.67Q3.92 12.15 3.73 12.55L3.73 12.55L3.73 12.55Q3.53 12.96 3.20 13.25L3.20 13.25L3.20 13.25Q2.86 13.55 2.37 13.71L2.37 13.71L2.37 13.71Q1.88 13.88 1.19 13.88L1.19 13.88L1.19 13.88Q0.84 13.88 0.55 13.83L0.55 13.83L0.55 13.83Q0.25 13.77 0.04 13.68L0.04 13.68L0.04 13.68Q-0.18 13.58-0.30 13.45L-0.30 13.45L-0.30 13.45Q-0.42 13.31-0.42 13.13L-0.42 13.13L-0.42 13.13Q-0.42 13.02-0.39 12.90L-0.39 12.90L-0.39 12.90Q-0.36 12.78-0.29 12.69L-0.29 12.69L-0.29 12.69Q-0.23 12.59-0.14 12.53L-0.14 12.53L-0.14 12.53Q-0.05 12.46 0.07 12.46L0.07 12.46L0.07 12.46Q0.14 12.46 0.19 12.53L0.19 12.53L0.19 12.53Q0.25 12.60 0.32 12.70L0.32 12.70L0.32 12.70Q0.38 12.80 0.47 12.92L0.47 12.92L0.47 12.92Q0.55 13.04 0.67 13.15L0.67 13.15L0.67 13.15Q0.79 13.25 0.96 13.32L0.96 13.32L0.96 13.32Q1.13 13.38 1.37 13.38L1.37 13.38L1.37 13.38Q1.93 13.38 2.29 13.19L2.29 13.19L2.29 13.19Q2.66 13.00 2.88 12.64L2.88 12.64L2.88 12.64Q3.11 12.28 3.21 11.77L3.21 11.77L3.21 11.77Q3.32 11.27 3.34 10.64L3.34 10.64L3.34 10.64Q3.36 10.21 3.37 9.80L3.37 9.80L3.37 9.80Q3.38 9.40 3.38 8.98L3.38 8.98L3.38 8.98Q3.39 8.57 3.39 8.11L3.39 8.11L3.39 8.11Q3.39 7.66 3.39 7.15ZM15.82 5.67L15.82 5.67L15.82 5.67Q15.82 5.91 15.89 6.06L15.89 6.06L15.89 6.06Q15.97 6.21 16.08 6.32L16.08 6.32L16.08 6.32Q16.19 6.43 16.32 6.49L16.32 6.49L16.32 6.49Q16.45 6.56 16.57 6.64L16.57 6.64L16.57 6.64Q16.68 6.71 16.75 6.81L16.75 6.81L16.75 6.81Q16.83 6.90 16.83 7.05L16.83 7.05L16.83 7.05Q16.83 7.31 16.65 7.44L16.65 7.44L16.65 7.44Q16.47 7.57 16.24 7.57L16.24 7.57L16.24 7.57Q16.02 7.57 15.84 7.44L15.84 7.44L15.84 7.44Q15.65 7.30 15.51 7.06L15.51 7.06L15.51 7.06Q15.37 6.83 15.29 6.51L15.29 6.51L15.29 6.51Q15.20 6.19 15.20 5.84L15.20 5.84L15.20 5.84Q15.20 5.40 15.34 5.00L15.34 5.00L15.34 5.00Q15.48 4.60 15.74 4.30L15.74 4.30L15.74 4.30Q16.01 3.99 16.40 3.81L16.40 3.81L16.40 3.81Q16.80 3.64 17.30 3.64L17.30 3.64L17.30 3.64Q17.64 3.64 18.05 3.75L18.05 3.75L18.05 3.75Q18.45 3.86 18.85 4.11L18.85 4.11L18.85 4.11Q19.25 4.35 19.62 4.74L19.62 4.74L19.62 4.74Q20.00 5.13 20.29 5.69L20.29 5.69L20.29 5.69Q20.58 6.25 20.75 6.99L20.75 6.99L20.75 6.99Q20.92 7.73 20.92 8.67L20.92 8.67L20.92 8.67Q20.92 9.88 20.56 10.83L20.56 10.83L20.56 10.83Q20.20 11.79 19.59 12.46L19.59 12.46L19.59 12.46Q18.98 13.13 18.17 13.48L18.17 13.48L18.17 13.48Q17.36 13.83 16.46 13.83L16.46 13.83L16.46 13.83Q15.57 13.83 14.75 13.52L14.75 13.52L14.75 13.52Q13.94 13.21 13.32 12.58L13.32 12.58L13.32 12.58Q12.70 11.95 12.34 10.98L12.34 10.98L12.34 10.98Q11.97 10.00 11.97 8.67L11.97 8.67L11.97 8.67Q11.97 7.64 12.25 6.79L12.25 6.79L12.25 6.79Q12.52 5.94 12.99 5.28L12.99 5.28L12.99 5.28Q13.46 4.63 14.08 4.18L14.08 4.18L14.08 4.18Q14.70 3.73 15.40 3.50L15.40 3.50L15.63 3.79L15.63 3.79Q15.44 3.99 15.26 4.20L15.26 4.20L15.26 4.20Q15.09 4.42 14.95 4.69L14.95 4.69L14.95 4.69Q14.81 4.96 14.69 5.31L14.69 5.31L14.69 5.31Q14.58 5.66 14.51 6.14L14.51 6.14L14.51 6.14Q14.43 6.61 14.39 7.23L14.39 7.23L14.39 7.23Q14.35 7.85 14.35 8.67L14.35 8.67L14.35 8.67Q14.35 9.72 14.46 10.47L14.46 10.47L14.46 10.47Q14.57 11.21 14.76 11.71L14.76 11.71L14.76 11.71Q14.94 12.22 15.17 12.51L15.17 12.51L15.17 12.51Q15.39 12.81 15.63 12.96L15.63 12.96L15.63 12.96Q15.86 13.11 16.08 13.16L16.08 13.16L16.08 13.16Q16.30 13.20 16.46 13.20L16.46 13.20L16.46 13.20Q16.63 13.20 16.84 13.16L16.84 13.16L16.84 13.16Q17.06 13.11 17.28 12.96L17.28 12.96L17.28 12.96Q17.51 12.81 17.74 12.51L17.74 12.51L17.74 12.51Q17.96 12.22 18.14 11.71L18.14 11.71L18.14 11.71Q18.31 11.21 18.42 10.47L18.42 10.47L18.42 10.47Q18.53 9.72 18.53 8.67L18.53 8.67L18.53 8.67Q18.53 7.75 18.45 7.06L18.45 7.06L18.45 7.06Q18.37 6.38 18.23 5.89L18.23 5.89L18.23 5.89Q18.10 5.41 17.93 5.10L17.93 5.10L17.93 5.10Q17.75 4.79 17.56 4.60L17.56 4.60L17.56 4.60Q17.38 4.42 17.19 4.35L17.19 4.35L17.19 4.35Q17.00 4.29 16.84 4.29L16.84 4.29L16.84 4.29Q16.60 4.29 16.41 4.40L16.41 4.40L16.41 4.40Q16.21 4.52 16.08 4.71L16.08 4.71L16.08 4.71Q15.96 4.91 15.89 5.16L15.89 5.16L15.89 5.16Q15.82 5.41 15.82 5.67ZM28.34 12.73L27.79 10.83L25.22 10.83L25.22 10.83Q24.93 11.74 24.60 12.40L24.60 12.40L24.60 12.40Q24.27 13.06 23.86 13.50L23.86 13.50L23.86 13.50Q23.46 13.94 22.98 14.15L22.98 14.15L22.98 14.15Q22.50 14.36 21.90 14.36L21.90 14.36L21.90 14.36Q21.57 14.36 21.27 14.30L21.27 14.30L21.27 14.30Q20.97 14.25 20.73 14.14L20.73 14.14L20.73 14.14Q20.50 14.04 20.36 13.90L20.36 13.90L20.36 13.90Q20.22 13.76 20.22 13.60L20.22 13.60L20.22 13.60Q20.22 13.47 20.26 13.35L20.26 13.35L20.26 13.35Q20.30 13.22 20.36 13.11L20.36 13.11L20.36 13.11Q20.43 13.01 20.53 12.94L20.53 12.94L20.53 12.94Q20.63 12.88 20.75 12.88L20.75 12.88L20.75 12.88Q20.86 12.88 20.95 13.03L20.95 13.03L20.95 13.03Q21.03 13.18 21.15 13.36L21.15 13.36L21.15 13.36Q21.28 13.54 21.48 13.69L21.48 13.69L21.48 13.69Q21.68 13.84 22.03 13.84L22.03 13.84L22.03 13.84Q22.38 13.84 22.70 13.67L22.70 13.67L22.70 13.67Q23.02 13.50 23.32 13.14L23.32 13.14L23.32 13.14Q23.62 12.77 23.89 12.20L23.89 12.20L23.89 12.20Q24.17 11.63 24.42 10.83L24.42 10.83L22.81 10.83L22.81 10.23L24.60 10.23L24.60 10.23Q24.83 9.47 25.04 8.69L25.04 8.69L25.04 8.69Q25.26 7.91 25.45 7.19L25.45 7.19L25.45 7.19Q25.64 6.47 25.79 5.85L25.79 5.85L25.79 5.85Q25.94 5.22 26.04 4.76L26.04 4.76L26.04 4.76Q25.91 4.38 25.67 4.25L25.67 4.25L25.67 4.25Q25.44 4.12 25.04 4.12L25.04 4.12L25.04 4.12Q24.67 4.12 24.28 4.23L24.28 4.23L24.28 4.23Q23.88 4.34 23.56 4.55L23.56 4.55L23.56 4.55Q23.24 4.76 23.03 5.06L23.03 5.06L23.03 5.06Q22.83 5.37 22.83 5.74L22.83 5.74L22.83 5.74Q22.83 5.96 22.88 6.09L22.88 6.09L22.88 6.09Q22.94 6.22 23.02 6.29L23.02 6.29L23.02 6.29Q23.10 6.35 23.17 6.37L23.17 6.37L23.17 6.37Q23.25 6.38 23.29 6.38L23.29 6.38L23.29 6.38Q23.45 6.38 23.57 6.33L23.57 6.33L23.57 6.33Q23.68 6.27 23.77 6.20L23.77 6.20L23.77 6.20Q23.85 6.14 23.93 6.08L23.93 6.08L23.93 6.08Q24.01 6.02 24.12 6.02L24.12 6.02L24.12 6.02Q24.19 6.02 24.28 6.06L24.28 6.06L24.28 6.06Q24.38 6.10 24.46 6.18L24.46 6.18L24.46 6.18Q24.53 6.26 24.59 6.40L24.59 6.40L24.59 6.40Q24.64 6.53 24.64 6.72L24.64 6.72L24.64 6.72Q24.64 6.99 24.54 7.19L24.54 7.19L24.54 7.19Q24.43 7.39 24.26 7.52L24.26 7.52L24.26 7.52Q24.10 7.66 23.88 7.72L23.88 7.72L23.88 7.72Q23.67 7.79 23.45 7.79L23.45 7.79L23.45 7.79Q23.13 7.79 22.86 7.67L22.86 7.67L22.86 7.67Q22.60 7.55 22.42 7.34L22.42 7.34L22.42 7.34Q22.23 7.14 22.13 6.86L22.13 6.86L22.13 6.86Q22.04 6.59 22.04 6.29L22.04 6.29L22.04 6.29Q22.04 5.84 22.19 5.46L22.19 5.46L22.19 5.46Q22.34 5.08 22.61 4.77L22.61 4.77L22.61 4.77Q22.87 4.46 23.24 4.22L23.24 4.22L23.24 4.22Q23.60 3.99 24.02 3.82L24.02 3.82L24.02 3.82Q24.44 3.66 24.90 3.58L24.90 3.58L24.90 3.58Q25.35 3.50 25.82 3.50L25.82 3.50L25.82 3.50Q26.48 3.50 26.93 3.61L26.93 3.61L26.93 3.61Q27.38 3.71 27.69 3.92L27.69 3.92L27.69 3.92Q28 4.13 28.19 4.45L28.19 4.45L28.19 4.45Q28.38 4.76 28.50 5.18L28.50 5.18L29.97 10.23L31.45 10.23L31.45 10.83L30.13 10.83L30.67 12.63L30.67 12.63Q30.69 12.73 30.72 12.82L30.72 12.82L30.72 12.82Q30.75 12.91 30.79 12.97L30.79 12.97L30.79 12.97Q30.82 13.04 30.88 13.08L30.88 13.08L30.88 13.08Q30.94 13.12 31.03 13.12L31.03 13.12L31.03 13.12Q31.22 13.12 31.38 13.05L31.38 13.05L31.38 13.05Q31.55 12.99 31.67 12.92L31.67 12.92L31.79 13.17L31.79 13.17Q31.66 13.26 31.48 13.37L31.48 13.37L31.48 13.37Q31.29 13.49 31.05 13.59L31.05 13.59L31.05 13.59Q30.80 13.69 30.51 13.76L30.51 13.76L30.51 13.76Q30.21 13.83 29.88 13.83L29.88 13.83L29.88 13.83Q29.42 13.83 29.13 13.71L29.13 13.71L29.13 13.71Q28.85 13.60 28.69 13.43L28.69 13.43L28.69 13.43Q28.53 13.25 28.45 13.06L28.45 13.06L28.45 13.06Q28.38 12.87 28.34 12.73L28.34 12.73ZM27.63 10.23L26.47 6.21L26.47 6.21Q26.19 7.36 25.93 8.36L25.93 8.36L25.93 8.36Q25.66 9.37 25.40 10.23L25.40 10.23L27.63 10.23ZM31.79 6.47L31.79 6.47L31.79 6.47Q31.79 5.67 32.23 5.11L32.23 5.11L32.23 5.11Q32.67 4.55 33.43 4.19L33.43 4.19L33.43 4.19Q34.20 3.83 35.22 3.66L35.22 3.66L35.22 3.66Q36.24 3.50 37.40 3.50L37.40 3.50L37.40 3.50Q37.95 3.50 38.48 3.51L38.48 3.51L38.48 3.51Q39.01 3.52 39.44 3.54L39.44 3.54L39.44 3.54Q39.87 3.56 40.19 3.59L40.19 3.59L40.19 3.59Q40.50 3.62 40.65 3.65L40.65 3.65L40.65 3.65Q40.78 3.68 40.87 3.73L40.87 3.73L40.87 3.73Q40.95 3.77 40.99 3.82L40.99 3.82L40.99 3.82Q41.03 3.88 41.04 3.95L41.04 3.95L41.04 3.95Q41.06 4.02 41.06 4.12L41.06 4.12L41.06 4.12Q41.06 4.20 41.04 4.30L41.04 4.30L41.04 4.30Q41.02 4.40 40.97 4.48L40.97 4.48L40.97 4.48Q40.93 4.57 40.87 4.63L40.87 4.63L40.87 4.63Q40.81 4.69 40.72 4.69L40.72 4.69L40.72 4.69Q40.67 4.69 40.60 4.64L40.60 4.64L40.60 4.64Q40.54 4.59 40.42 4.52L40.42 4.52L40.42 4.52Q40.30 4.44 40.10 4.36L40.10 4.36L40.10 4.36Q39.89 4.28 39.56 4.20L39.56 4.20L39.56 4.20Q39.22 4.13 38.72 4.08L38.72 4.08L38.72 4.08Q38.21 4.03 37.50 4.03L37.50 4.03L37.50 8.42L40.34 8.42L40.34 9.02L37.50 9.02L37.50 11.69L37.50 11.69Q37.50 12.01 37.60 12.24L37.60 12.24L37.60 12.24Q37.69 12.47 37.87 12.62L37.87 12.62L37.87 12.62Q38.05 12.77 38.30 12.84L38.30 12.84L38.30 12.84Q38.55 12.91 38.86 12.91L38.86 12.91L38.86 12.91Q39.20 12.91 39.55 12.83L39.55 12.83L39.55 12.83Q39.90 12.76 40.21 12.65L40.21 12.65L40.21 12.65Q40.52 12.54 40.78 12.41L40.78 12.41L40.78 12.41Q41.04 12.27 41.19 12.14L41.19 12.14L41.46 12.43L41.46 12.43Q41.29 12.57 41.00 12.81L41.00 12.81L41.00 12.81Q40.71 13.04 40.30 13.27L40.30 13.27L40.30 13.27Q39.89 13.49 39.34 13.66L39.34 13.66L39.34 13.66Q38.79 13.83 38.09 13.83L38.09 13.83L38.09 13.83Q37.86 13.83 37.56 13.81L37.56 13.81L37.56 13.81Q37.26 13.78 36.95 13.71L36.95 13.71L36.95 13.71Q36.63 13.64 36.33 13.50L36.33 13.50L36.33 13.50Q36.03 13.36 35.79 13.13L35.79 13.13L35.79 13.13Q35.55 12.89 35.41 12.55L35.41 12.55L35.41 12.55Q35.26 12.22 35.26 11.74L35.26 11.74L35.26 9.02L34.19 9.02L34.19 8.42L35.26 8.42L35.26 4.12L35.26 4.12Q35.04 4.14 34.76 4.19L34.76 4.19L34.76 4.19Q34.47 4.25 34.18 4.36L34.18 4.36L34.18 4.36Q33.88 4.46 33.59 4.61L33.59 4.61L33.59 4.61Q33.30 4.75 33.08 4.94L33.08 4.94L33.08 4.94Q32.85 5.13 32.71 5.37L32.71 5.37L32.71 5.37Q32.57 5.61 32.57 5.88L32.57 5.88L32.57 5.88Q32.57 6.10 32.63 6.23L32.63 6.23L32.63 6.23Q32.69 6.36 32.76 6.42L32.76 6.42L32.76 6.42Q32.84 6.49 32.92 6.50L32.92 6.50L32.92 6.50Q33.00 6.52 33.03 6.52L33.03 6.52L33.03 6.52Q33.20 6.52 33.31 6.46L33.31 6.46L33.31 6.46Q33.42 6.41 33.51 6.34L33.51 6.34L33.51 6.34Q33.60 6.28 33.68 6.22L33.68 6.22L33.68 6.22Q33.76 6.16 33.86 6.16L33.86 6.16L33.86 6.16Q33.94 6.16 34.03 6.20L34.03 6.20L34.03 6.20Q34.13 6.23 34.20 6.32L34.20 6.32L34.20 6.32Q34.28 6.40 34.34 6.53L34.34 6.53L34.34 6.53Q34.39 6.67 34.39 6.86L34.39 6.86L34.39 6.86Q34.39 7.13 34.29 7.33L34.29 7.33L34.29 7.33Q34.18 7.53 34.01 7.66L34.01 7.66L34.01 7.66Q33.84 7.79 33.63 7.86L33.63 7.86L33.63 7.86Q33.41 7.92 33.20 7.92L33.20 7.92L33.20 7.92Q32.87 7.92 32.61 7.81L32.61 7.81L32.61 7.81Q32.35 7.70 32.16 7.50L32.16 7.50L32.16 7.50Q31.98 7.30 31.88 7.04L31.88 7.04L31.88 7.04Q31.79 6.77 31.79 6.47Z"></path></g><!----><!----></svg>